<?xml version="1.0" encoding="utf-8"?>
<svg width="1280px" height="720px" viewBox="0 0 1280 720" version="1.1" xmlns:xlink="http://www.w3.org/1999/xlink" xmlns="http://www.w3.org/2000/svg">
  <desc>Created with Lunacy</desc>
  <defs>
    <rect width="1280" height="720" id="artboard_1" />
    <clipPath id="clip_1">
      <use xlink:href="#artboard_1" clip-rule="evenodd" />
    </clipPath>
  </defs>
  <g id="Banner" clip-path="url(#clip_1)">
    <use xlink:href="#artboard_1" stroke="none" fill="#FFFFFF" />
    <g id="Headline-2" transform="translate(116 252)">
      <g id="Node">
        <path d="M294.95 180.32C307.95 180.32 316.95 175.12 321.75 166.12L321.15 178.52L348.15 178.52L348.15 34.1195L321.15 34.1195L321.15 105.32C315.75 96.9195 308.15 91.5195 294.55 91.5195C273.95 91.5195 256.35 109.52 256.35 135.72C256.35 161.92 274.15 180.32 294.95 180.32ZM128.35 179.72L125.55 179.72L56.95 115.32C50.15 108.92 40.75 96.7195 40.75 96.7195C40.75 96.7195 42.75 111.72 42.75 121.52L42.75 178.52L16.55 178.52L16.55 41.3195L19.35 41.3195L87.95 105.72C94.55 111.92 103.95 124.32 103.95 124.32C103.95 124.32 102.15 108.92 102.15 99.5195L102.15 42.5195L128.35 42.5195L128.35 179.72ZM242.45 136.12C242.45 161.92 222.05 180.32 195.65 180.32C169.25 180.32 148.65 161.92 148.65 136.12C148.65 110.12 169.25 91.5195 195.65 91.5195C222.05 91.5195 242.45 110.12 242.45 136.12ZM457.05 144.12L392.45 144.12C395.05 152.92 402.25 157.92 414.45 157.92C424.25 157.92 431.65 154.12 435.85 151.12L451.25 167.72C443.05 174.92 432.65 180.32 414.85 180.32C384.45 180.32 364.85 161.92 364.85 135.72C364.85 109.92 385.45 91.5195 411.85 91.5195C442.45 91.5195 459.05 114.32 457.05 144.12ZM412.05 113.52C401.45 113.52 394.25 118.32 392.05 128.52L429.85 128.52C428.65 119.12 422.65 113.52 412.05 113.52ZM176.25 136.12C176.25 148.72 183.65 157.52 195.65 157.52C207.65 157.52 214.85 148.72 214.85 136.12C214.85 123.32 207.65 114.72 195.65 114.72C183.65 114.72 176.25 123.32 176.25 136.12ZM302.75 156.72C291.35 156.72 284.15 149.12 284.15 135.72C284.15 123.12 291.35 115.32 302.75 115.32C314.35 115.32 321.95 123.12 321.95 135.72C321.95 149.12 314.35 156.72 302.75 156.72Z" />
      </g>
      <g id="Fetch" fill="#4CAF50">
        <path d="M929.75 178.52L902.75 178.52L902.75 34.1195L929.75 34.1195L929.75 106.72C934.95 96.9195 944.35 91.5195 956.15 91.5195C974.75 91.5195 988.15 105.12 988.15 129.32L988.15 178.52L961.15 178.52L961.15 131.12C961.15 121.52 956.55 116.12 946.95 116.12C936.15 116.12 929.75 122.12 929.75 132.92L929.75 178.52ZM521.75 178.52L549.75 178.52L549.75 137.12L603.95 137.12L603.95 112.12L549.75 112.12L549.75 67.1195L609.35 67.1195L609.35 42.5195L521.75 42.5195L521.75 178.52ZM795.55 172.92C791.35 176.32 784.15 180.72 771.75 180.72C754.55 180.72 742.15 172.12 742.15 146.52L742.15 115.72L729.55 115.72L729.55 93.3195L742.15 93.3195L742.15 48.9195L768.95 48.9195L768.95 93.3195L790.75 93.3195L790.75 115.72L768.95 115.72L768.95 147.32C768.95 155.92 771.75 157.72 775.95 157.72C780.35 157.72 783.55 155.32 785.35 154.12L795.55 172.92ZM652.45 144.12L717.05 144.12C719.05 114.32 702.45 91.5195 671.85 91.5195C645.45 91.5195 624.85 109.92 624.85 135.72C624.85 161.92 644.45 180.32 674.85 180.32C692.65 180.32 703.05 174.92 711.25 167.72L695.85 151.12C691.65 154.12 684.25 157.92 674.45 157.92C662.25 157.92 655.05 152.92 652.45 144.12ZM852.45 180.32C869.45 180.32 879.45 174.32 887.85 164.92L869.65 148.92C865.65 152.92 861.05 156.92 852.45 156.92C840.25 156.92 833.45 148.12 833.45 135.72C833.45 123.72 840.25 115.12 852.45 115.12C859.25 115.12 865.85 118.92 869.05 124.12L888.25 108.52C879.65 97.7195 869.45 91.5195 852.45 91.5195C825.85 91.5195 805.85 109.92 805.85 135.72C805.85 161.92 825.85 180.32 852.45 180.32ZM652.05 128.52C654.25 118.32 661.45 113.52 672.05 113.52C682.65 113.52 688.65 119.12 689.85 128.52L652.05 128.52Z" />
      </g>
    </g>
  </g>
</svg>